<svg width="267" height="60" viewBox="0 0 267 60" fill="none" xmlns="http://www.w3.org/2000/svg">
<path fill-rule="evenodd" clip-rule="evenodd" d="M31.23 1.74L58.23 28.74C59.31 29.82 60 31.35 60 33C60 34.65 59.34 36.15 58.23 37.23L37.23 58.23C36.15 59.34 34.65 60 33 60C31.35 60 29.85 59.34 28.77 58.26L1.77 31.26C0.66 30.15 0 28.65 0 27V6C0 2.7 2.7 0 6 0H27C28.65 0 30.15 0.66 31.23 1.74ZM6 27L33 54.03L54 32.97L27 5.96997V5.99997H6V27ZM13.5 9C11.0147 9 9 11.0147 9 13.5C9 15.9853 11.0147 18 13.5 18C15.9853 18 18 15.9853 18 13.5C18 11.0147 15.9853 9 13.5 9ZM22.5 36C21.39 34.86 20.7 33.36 20.7 31.65C20.7 28.26 23.46 25.5 26.85 25.5C28.53 25.5 30.09 26.19 31.2 27.33L33 29.1L34.8 27.3C35.91 26.19 37.44 25.5 39.15 25.5C42.54 25.5 45.3 28.26 45.3 31.65C45.3 33.33 44.61 34.89 43.5 36L33 46.5L22.5 36Z" fill="#FFC107"/>
<path d="M77.4 44.28C75.4533 44.28 73.6933 43.9467 72.12 43.28C70.5733 42.6133 69.3467 41.6533 68.44 40.4C67.5333 39.1467 67.0667 37.6667 67.04 35.96H73.04C73.12 37.1067 73.52 38.0133 74.24 38.68C74.9867 39.3467 76 39.68 77.28 39.68C78.5867 39.68 79.6133 39.3733 80.36 38.76C81.1067 38.12 81.48 37.2933 81.48 36.28C81.48 35.4533 81.2267 34.7733 80.72 34.24C80.2133 33.7067 79.5733 33.2933 78.8 33C78.0533 32.68 77.0133 32.3333 75.68 31.96C73.8667 31.4267 72.3867 30.9067 71.24 30.4C70.12 29.8667 69.1467 29.08 68.32 28.04C67.52 26.9733 67.12 25.56 67.12 23.8C67.12 22.1467 67.5333 20.7067 68.36 19.48C69.1867 18.2533 70.3467 17.32 71.84 16.68C73.3333 16.0133 75.04 15.68 76.96 15.68C79.84 15.68 82.1733 16.3867 83.96 17.8C85.7733 19.1867 86.7733 21.1333 86.96 23.64H80.8C80.7467 22.68 80.3333 21.8933 79.56 21.28C78.8133 20.64 77.8133 20.32 76.56 20.32C75.4667 20.32 74.5867 20.6 73.92 21.16C73.28 21.72 72.96 22.5333 72.96 23.6C72.96 24.3467 73.2 24.9733 73.68 25.48C74.1867 25.96 74.8 26.36 75.52 26.68C76.2667 26.9733 77.3067 27.32 78.64 27.72C80.4533 28.2533 81.9333 28.7867 83.08 29.32C84.2267 29.8533 85.2133 30.6533 86.04 31.72C86.8667 32.7867 87.28 34.1867 87.28 35.92C87.28 37.4133 86.8933 38.8 86.12 40.08C85.3467 41.36 84.2133 42.3867 82.72 43.16C81.2267 43.9067 79.4533 44.28 77.4 44.28ZM90.695 32.84C90.695 30.6 91.135 28.6133 92.015 26.88C92.9217 25.1467 94.135 23.8133 95.655 22.88C97.2017 21.9467 98.9217 21.48 100.815 21.48C102.468 21.48 103.908 21.8133 105.135 22.48C106.388 23.1467 107.388 23.9867 108.135 25V21.84H113.775V44H108.135V40.76C107.415 41.8 106.415 42.6667 105.135 43.36C103.882 44.0267 102.428 44.36 100.775 44.36C98.9083 44.36 97.2017 43.88 95.655 42.92C94.135 41.96 92.9217 40.6133 92.015 38.88C91.135 37.12 90.695 35.1067 90.695 32.84ZM108.135 32.92C108.135 31.56 107.868 30.4 107.335 29.44C106.802 28.4533 106.082 27.7067 105.175 27.2C104.268 26.6667 103.295 26.4 102.255 26.4C101.215 26.4 100.255 26.6533 99.375 27.16C98.495 27.6667 97.775 28.4133 97.215 29.4C96.6817 30.36 96.415 31.5067 96.415 32.84C96.415 34.1733 96.6817 35.3467 97.215 36.36C97.775 37.3467 98.495 38.1067 99.375 38.64C100.282 39.1733 101.242 39.44 102.255 39.44C103.295 39.44 104.268 39.1867 105.175 38.68C106.082 38.1467 106.802 37.4 107.335 36.44C107.868 35.4533 108.135 34.28 108.135 32.92ZM124.844 14.4V44H119.244V14.4H124.844ZM150.977 32.44C150.977 33.24 150.924 33.96 150.817 34.6H134.617C134.751 36.2 135.311 37.4533 136.297 38.36C137.284 39.2667 138.497 39.72 139.937 39.72C142.017 39.72 143.497 38.8267 144.377 37.04H150.417C149.777 39.1733 148.551 40.9333 146.737 42.32C144.924 43.68 142.697 44.36 140.057 44.36C137.924 44.36 136.004 43.8933 134.297 42.96C132.617 42 131.297 40.6533 130.337 38.92C129.404 37.1867 128.937 35.1867 128.937 32.92C128.937 30.6267 129.404 28.6133 130.337 26.88C131.271 25.1467 132.577 23.8133 134.257 22.88C135.937 21.9467 137.871 21.48 140.057 21.48C142.164 21.48 144.044 21.9333 145.697 22.84C147.377 23.7467 148.671 25.04 149.577 26.72C150.511 28.3733 150.977 30.28 150.977 32.44ZM145.177 30.84C145.151 29.4 144.631 28.2533 143.617 27.4C142.604 26.52 141.364 26.08 139.897 26.08C138.511 26.08 137.337 26.5067 136.377 27.36C135.444 28.1867 134.871 29.3467 134.657 30.84H145.177ZM164.705 44.28C162.758 44.28 160.998 43.9467 159.425 43.28C157.878 42.6133 156.651 41.6533 155.745 40.4C154.838 39.1467 154.371 37.6667 154.345 35.96H160.345C160.425 37.1067 160.825 38.0133 161.545 38.68C162.291 39.3467 163.305 39.68 164.585 39.68C165.891 39.68 166.918 39.3733 167.665 38.76C168.411 38.12 168.785 37.2933 168.785 36.28C168.785 35.4533 168.531 34.7733 168.025 34.24C167.518 33.7067 166.878 33.2933 166.105 33C165.358 32.68 164.318 32.3333 162.985 31.96C161.171 31.4267 159.691 30.9067 158.545 30.4C157.425 29.8667 156.451 29.08 155.625 28.04C154.825 26.9733 154.425 25.56 154.425 23.8C154.425 22.1467 154.838 20.7067 155.665 19.48C156.491 18.2533 157.651 17.32 159.145 16.68C160.638 16.0133 162.345 15.68 164.265 15.68C167.145 15.68 169.478 16.3867 171.265 17.8C173.078 19.1867 174.078 21.1333 174.265 23.64H168.105C168.051 22.68 167.638 21.8933 166.865 21.28C166.118 20.64 165.118 20.32 163.865 20.32C162.771 20.32 161.891 20.6 161.225 21.16C160.585 21.72 160.265 22.5333 160.265 23.6C160.265 24.3467 160.505 24.9733 160.985 25.48C161.491 25.96 162.105 26.36 162.825 26.68C163.571 26.9733 164.611 27.32 165.945 27.72C167.758 28.2533 169.238 28.7867 170.385 29.32C171.531 29.8533 172.518 30.6533 173.345 31.72C174.171 32.7867 174.585 34.1867 174.585 35.92C174.585 37.4133 174.198 38.8 173.425 40.08C172.651 41.36 171.518 42.3867 170.025 43.16C168.531 43.9067 166.758 44.28 164.705 44.28ZM191.92 21.52C193.6 21.52 195.093 21.8933 196.4 22.64C197.706 23.36 198.72 24.44 199.44 25.88C200.186 27.2933 200.56 29 200.56 31V44H194.96V31.76C194.96 30 194.52 28.6533 193.64 27.72C192.76 26.76 191.56 26.28 190.04 26.28C188.493 26.28 187.266 26.76 186.36 27.72C185.48 28.6533 185.04 30 185.04 31.76V44H179.44V14.4H185.04V24.6C185.76 23.64 186.72 22.8933 187.92 22.36C189.12 21.8 190.453 21.52 191.92 21.52ZM215.725 44.36C213.592 44.36 211.672 43.8933 209.965 42.96C208.258 42 206.912 40.6533 205.925 38.92C204.965 37.1867 204.485 35.1867 204.485 32.92C204.485 30.6533 204.978 28.6533 205.965 26.92C206.978 25.1867 208.352 23.8533 210.085 22.92C211.818 21.96 213.752 21.48 215.885 21.48C218.018 21.48 219.952 21.96 221.685 22.92C223.418 23.8533 224.778 25.1867 225.765 26.92C226.778 28.6533 227.285 30.6533 227.285 32.92C227.285 35.1867 226.765 37.1867 225.725 38.92C224.712 40.6533 223.325 42 221.565 42.96C219.832 43.8933 217.885 44.36 215.725 44.36ZM215.725 39.48C216.738 39.48 217.685 39.24 218.565 38.76C219.472 38.2533 220.192 37.5067 220.725 36.52C221.258 35.5333 221.525 34.3333 221.525 32.92C221.525 30.8133 220.965 29.2 219.845 28.08C218.752 26.9333 217.405 26.36 215.805 26.36C214.205 26.36 212.858 26.9333 211.765 28.08C210.698 29.2 210.165 30.8133 210.165 32.92C210.165 35.0267 210.685 36.6533 211.725 37.8C212.792 38.92 214.125 39.48 215.725 39.48ZM236.993 25.04C237.713 24.0267 238.699 23.1867 239.953 22.52C241.233 21.8267 242.686 21.48 244.313 21.48C246.206 21.48 247.913 21.9467 249.433 22.88C250.979 23.8133 252.193 25.1467 253.073 26.88C253.979 28.5867 254.433 30.5733 254.433 32.84C254.433 35.1067 253.979 37.12 253.073 38.88C252.193 40.6133 250.979 41.96 249.433 42.92C247.913 43.88 246.206 44.36 244.313 44.36C242.686 44.36 241.246 44.0267 239.993 43.36C238.766 42.6933 237.766 41.8533 236.993 40.84V54.56H231.393V21.84H236.993V25.04ZM248.713 32.84C248.713 31.5067 248.433 30.36 247.873 29.4C247.339 28.4133 246.619 27.6667 245.713 27.16C244.833 26.6533 243.873 26.4 242.833 26.4C241.819 26.4 240.859 26.6667 239.953 27.2C239.073 27.7067 238.353 28.4533 237.793 29.44C237.259 30.4267 236.993 31.5867 236.993 32.92C236.993 34.2533 237.259 35.4133 237.793 36.4C238.353 37.3867 239.073 38.1467 239.953 38.68C240.859 39.1867 241.819 39.44 242.833 39.44C243.873 39.44 244.833 39.1733 245.713 38.64C246.619 38.1067 247.339 37.3467 247.873 36.36C248.433 35.3733 248.713 34.2 248.713 32.84ZM260.982 44.28C259.969 44.28 259.129 43.9733 258.462 43.36C257.822 42.72 257.502 41.9333 257.502 41C257.502 40.0667 257.822 39.2933 258.462 38.68C259.129 38.04 259.969 37.72 260.982 37.72C261.969 37.72 262.782 38.04 263.422 38.68C264.062 39.2933 264.382 40.0667 264.382 41C264.382 41.9333 264.062 42.72 263.422 43.36C262.782 43.9733 261.969 44.28 260.982 44.28Z" fill="#3F4042"/>
</svg>
